<svg width="512" height="512" viewBox="0 0 512 512" fill="none" xmlns="http://www.w3.org/2000/svg">
  <rect width="512" height="512" fill="#0a0f1e"/>
  <defs>
    <linearGradient id="gradient" x1="0%" y1="0%" x2="100%" y2="100%">
      <stop offset="0%" style="stop-color:#00f0ff;stop-opacity:1" />
      <stop offset="100%" style="stop-color:#39ff14;stop-opacity:1" />
    </linearGradient>
  </defs>

  <circle cx="256" cy="256" r="200" fill="url(#gradient)" opacity="0.1"/>

  <path d="M256 100 L350 200 L350 350 L256 400 L162 350 L162 200 Z"
        stroke="url(#gradient)"
        stroke-width="4"
        fill="none"
        opacity="0.8"/>

  <circle cx="256" cy="180" r="15" fill="#00f0ff"/>
  <circle cx="310" cy="240" r="15" fill="#00f0ff"/>
  <circle cx="310" cy="320" r="15" fill="#39ff14"/>
  <circle cx="256" cy="370" r="15" fill="#39ff14"/>
  <circle cx="202" cy="320" r="15" fill="#39ff14"/>
  <circle cx="202" cy="240" r="15" fill="#00f0ff"/>

  <line x1="256" y1="180" x2="310" y2="240" stroke="#00f0ff" stroke-width="2" opacity="0.6"/>
  <line x1="256" y1="180" x2="202" y2="240" stroke="#00f0ff" stroke-width="2" opacity="0.6"/>
  <line x1="310" y1="240" x2="310" y2="320" stroke="url(#gradient)" stroke-width="2" opacity="0.6"/>
  <line x1="202" y1="240" x2="202" y2="320" stroke="url(#gradient)" stroke-width="2" opacity="0.6"/>
  <line x1="310" y1="320" x2="256" y2="370" stroke="#39ff14" stroke-width="2" opacity="0.6"/>
  <line x1="202" y1="320" x2="256" y2="370" stroke="#39ff14" stroke-width="2" opacity="0.6"/>

  <text x="256" y="470" font-family="Arial, sans-serif" font-size="36" font-weight="bold"
        fill="url(#gradient)" text-anchor="middle">OCEAN</text>
</svg>
